<?xml version="1.0" encoding="UTF-8" standalone="no"?>
<svg
   width="106"
   height="117"
   viewBox="0 0 106 117"
   fill="none"
   version="1.1"
   id="svg3"
   sodipodi:docname="logos-mark-display-black.svg"
   xmlns:inkscape="http://www.inkscape.org/namespaces/inkscape"
   xmlns:sodipodi="http://sodipodi.sourceforge.net/DTD/sodipodi-0.dtd"
   xmlns="http://www.w3.org/2000/svg"
   xmlns:svg="http://www.w3.org/2000/svg">
  <defs
     id="defs3" />
  <sodipodi:namedview
     id="namedview3"
     pagecolor="#ffffff"
     bordercolor="#000000"
     borderopacity="0.25"
     inkscape:showpageshadow="2"
     inkscape:pageopacity="0.0"
     inkscape:pagecheckerboard="0"
     inkscape:deskcolor="#d1d1d1"
     inkscape:export-bgcolor="#ffffff00">
    <inkscape:page
       x="0"
       y="0"
       width="106"
       height="117"
       id="page2"
       margin="0"
       bleed="0" />
  </sodipodi:namedview>
  <path
     d="M 79.5652,90.9453 H 26.4297 V 57.7546 H 79.515 Z M 52.9388,60.4173 c -4.5353,0.0048 -8.9992,1.1436 -12.9956,3.3152 -3.9963,2.1716 -7.4015,5.309 -9.9131,9.1335 -0.3323,0.3885 -0.5152,0.8852 -0.5152,1.3992 0,0.5139 0.1829,1.0107 0.5152,1.3992 2.5278,3.8069 5.9394,6.9273 9.9355,9.0876 3.9961,2.1603 8.4547,3.2944 12.9844,3.3027 4.5298,0.0084 8.9925,-1.1092 12.9963,-3.2546 4.0039,-2.1455 7.4267,-5.2534 9.9682,-9.0509 0.3625,-0.4105 0.5629,-0.9418 0.5629,-1.4925 0,-0.5507 -0.2004,-1.0821 -0.5629,-1.4925 C 73.38,68.9553 69.9577,65.8377 65.9503,63.6871 61.943,61.5366 57.474,60.4193 52.9388,60.4343 Z"
     fill="#000000"
     id="path1" />
  <path
     d="M 53.0896,54.6509 C 48.5833,54.6418 44.1464,53.526 40.1594,51.3992 36.1723,49.2724 32.754,46.198 30.1976,42.4397 c -0.4262,-0.4592 -0.6635,-1.0658 -0.6635,-1.696 0,-0.6303 0.2373,-1.2368 0.6635,-1.696 2.555,-3.7516 5.9756,-6.8148 9.9647,-8.9238 3.9891,-2.109 8.4262,-3.2 12.9261,-3.1783 4.4999,0.0218 8.9266,1.1555 12.8957,3.303 3.9691,2.1474 7.3606,5.2435 9.8802,9.0195 0.3613,0.4077 0.5611,0.9362 0.5611,1.484 0,0.5478 -0.1998,1.0763 -0.5611,1.484 -2.5165,3.7857 -5.905,6.8942 -9.8729,9.0572 -3.9678,2.1629 -8.3959,3.3153 -12.9018,3.3576 z m 9.9137,-13.7377 c 0.0466,-2.022 -0.5029,-4.0123 -1.5782,-5.7167 -1.0753,-1.7043 -2.6278,-3.0454 -4.4592,-3.8522 -1.8314,-0.8067 -3.8586,-1.0424 -5.8229,-0.677 -1.9642,0.3654 -3.7764,1.3154 -5.2051,2.7286 -1.4288,1.4132 -2.4092,3.2256 -2.8163,5.2057 -0.4071,1.9802 -0.2222,4.0383 0.5309,5.9116 0.7531,1.8733 2.0403,3.4768 3.6973,4.6058 1.6571,1.129 3.6087,1.7323 5.6058,1.7328 2.6247,8e-4 5.1455,-1.0387 7.0232,-2.896 1.8777,-1.8573 2.9632,-4.3851 3.0245,-7.0426 z"
     fill="#000000"
     id="path2" />
  <path
     d="m 52.9886,84.2797 c -1.9473,-0.0334 -3.8415,-0.649 -5.4444,-1.7694 -1.603,-1.1203 -2.8432,-2.6956 -3.5649,-4.5277 -0.7217,-1.8321 -0.8927,-3.8393 -0.4914,-5.7695 0.4013,-1.9302 1.3569,-3.6972 2.7468,-5.0791 1.3899,-1.3818 3.152,-2.3167 5.065,-2.6874 1.9129,-0.3706 3.8914,-0.1604 5.6867,0.6043 1.7953,0.7647 3.3275,2.0497 4.4039,3.6936 1.0764,1.6439 1.6491,3.5733 1.646,5.5458 -0.0042,1.3264 -0.2684,2.6387 -0.7771,3.8609 -0.5088,1.2222 -1.252,2.33 -2.1866,3.2592 -0.9346,0.9292 -2.042,1.6612 -3.258,2.1538 -1.216,0.4925 -2.5164,0.7357 -3.826,0.7155 z"
     fill="#000000"
     id="path3" />
</svg>
